# xmcd
#
# Track frame offsets: 
#        150
#        23865
#        37613
#        51191
#        72330
#        91213
#        110426
#        124036
#        144504
#        157895
#        171211
#        184947
#        199997
#        216329
#        233644
#        248089
#        268145
#        287000
#        302049
#        319040
#
# Disc length: 4450 seconds
#
# Revision: 0
# Processed by: cddbd v1.5.2PL0 Copyright (c) Steve Scherf et al.
# Submitted via: ExactAudioCopy v1.1
#
DISCID=1b116014
DTITLE=Various Artist - De Pré Historie - De Jaren '70 - De Ultieme 10 CD Col
DTITLE=lectie - 1970
DYEAR=2018
DGENRE=Top 40
TTITLE0=James Brown - Sex Machine
TTITLE1=Stevie Wonder - Yester-Me, Yester-You, Yesterday
TTITLE2=George Baker Selection - Dear Ann
TTITLE3=Fleetwood Mac - The Green Manalishi
TTITLE4=Free - All Right Now
TTITLE5=Santana - Jingo Lo Ba
TTITLE6=Shocking Blue - Never Marry A Railroad Man
TTITLE7=The Pebbles - Mackintosh
TTITLE8=The Beach Boys - Cotton Fields
TTITLE9=Jackson 5 - I Want You Back
TTITLE10=Smokey Robinson and The Miracles - The Tears Of A Clown
TTITLE11=Edwin Starr - War
TTITLE12=Rare Earth - I Know I'm Losing You
TTITLE13=Golden Earring - Back Home
TTITLE14=Canned Heat - Let's Work Together
TTITLE15=Matthews' Southern Comfort - Woodstock
TTITLE16=Hotlegs - Neanderthal Man
TTITLE17=Engelbert Humperdinck - Winter World Of Love
TTITLE18=Jimmy Cliff - Wild World
TTITLE19=Will Tura - Linda
EXTD=
EXTT0=
EXTT1=
EXTT2=
EXTT3=
EXTT4=
EXTT5=
EXTT6=
EXTT7=
EXTT8=
EXTT9=
EXTT10=
EXTT11=
EXTT12=
EXTT13=
EXTT14=
EXTT15=
EXTT16=
EXTT17=
EXTT18=
EXTT19=
PLAYORDER=
